<svg width="25" height="25" viewBox="0 0 25 25" fill="none" xmlns="http://www.w3.org/2000/svg">
<mask id="mask0_103_2334" style="mask-type:alpha" maskUnits="userSpaceOnUse" x="0" y="0" width="25" height="25">
<rect x="0.354218" y="0.510986" width="24" height="24" fill="#D9D9D9"/>
</mask>
<g mask="url(#mask0_103_2334)">
<path d="M7.65422 21.511C7.02088 21.511 6.47922 21.2818 6.02922 20.8235C5.57922 20.3652 5.35422 19.8193 5.35422 19.186V9.91099L3.52922 5.51099H1.35422V3.51099H4.87922L6.52922 7.51099H21.3042C21.6876 7.51099 21.9792 7.66932 22.1792 7.98599C22.3792 8.30265 22.3876 8.62765 22.2042 8.96099L19.3542 14.536C20.2042 14.6693 20.9167 15.061 21.4917 15.711C22.0667 16.361 22.3542 17.1277 22.3542 18.011C22.3542 18.9777 22.0167 19.8027 21.3417 20.486C20.6667 21.1693 19.8459 21.511 18.8792 21.511C17.8959 21.511 17.0667 21.1693 16.3917 20.486C15.7167 19.8027 15.3792 18.9777 15.3792 18.011C15.3792 17.6777 15.4209 17.3693 15.5042 17.086C15.5876 16.8027 15.7042 16.5277 15.8542 16.261L12.5792 15.961L9.57922 20.461C9.36255 20.7943 9.08338 21.0527 8.74172 21.236C8.40005 21.4193 8.03755 21.511 7.65422 21.511ZM17.2042 14.386L19.6792 9.51099H7.35422L8.60422 12.511C8.73755 12.8443 8.95005 13.1235 9.24172 13.3485C9.53338 13.5735 9.87088 13.7027 10.2542 13.736L17.2042 14.386ZM7.67922 19.486C7.71255 19.486 7.78755 19.4443 7.90422 19.361L10.3292 15.761C9.51255 15.6777 8.87088 15.4818 8.40422 15.1735C7.93755 14.8652 7.58755 14.5443 7.35422 14.211V19.211C7.35422 19.2943 7.38755 19.361 7.45422 19.411C7.52088 19.461 7.59588 19.486 7.67922 19.486ZM18.8542 19.511C19.2876 19.511 19.6459 19.3652 19.9292 19.0735C20.2126 18.7818 20.3542 18.4277 20.3542 18.011C20.3542 17.5777 20.2126 17.2193 19.9292 16.936C19.6459 16.6527 19.2876 16.511 18.8542 16.511C18.4376 16.511 18.0834 16.6527 17.7917 16.936C17.5001 17.2193 17.3542 17.5777 17.3542 18.011C17.3542 18.4277 17.5001 18.7818 17.7917 19.0735C18.0834 19.3652 18.4376 19.511 18.8542 19.511Z" fill="#1C1B1F"/>
</g>
</svg>
